<?xml version="1.0" encoding="iso-8859-1"?>
<!-- Uploaded to: SVG Repo, www.svgrepo.com, Generator: SVG Repo Mixer Tools -->
<svg height="800px" width="800px" version="1.1" id="Layer_1" xmlns="http://www.w3.org/2000/svg" xmlns:xlink="http://www.w3.org/1999/xlink" 
	 viewBox="0 0 508 508" xml:space="preserve">
<path style="fill:#F4EFEF;" d="M472,56h-2H36C19.6,56,6,67.6,6,84v48c0,16.4,13.6,32,30,32h436c16.4,0,30-15.6,30-32V86v-2
	C502,67.6,488.4,56,472,56z"/>
<path style="fill:#CDEEF9;" d="M102,101.6v8.4c0,7.6,8,18,16,18h216.4c7.6,0,12-10,12-18v-8.4c0-7.6-4-9.6-12-9.6H118
	C110,92,102,94,102,101.6z"/>
<path style="fill:#E8E3E3;" d="M63.2,88.8C61.6,88.4,59.6,88,58,88c-9.6,0-17.6,8-17.6,17.6s8,17.6,17.6,17.6s17.6-8,17.6-17.6
	c0-2.4-0.4-3.6-0.8-5.2C71.6,92.4,63.2,88.8,63.2,88.8z"/>
<path style="fill:#F4EFEF;" d="M472,200h-2H36c-16.4,0-30,11.6-30,28v48c0,16.4,13.6,32,30,32h436c16.4,0,30-15.6,30-32v-46v-2
	C502,211.6,488.4,200,472,200z"/>
<path style="fill:#CDEEF9;" d="M102,245.6v8.4c0,8,8,18,16,18h216.4c7.6,0,12-10,12-18v-8.4c0-7.6-4-9.6-12-9.6H118
	C110,236,102,238,102,245.6z"/>
<path style="fill:#E8E3E3;" d="M63.2,232.8c-1.6-0.4-3.6-0.8-5.6-0.8C48,232,40,240,40,249.6s8,17.6,17.6,17.6s17.6-8,17.6-17.6
	c0-2-0.4-3.6-0.8-5.2C71.6,235.6,63.2,232.8,63.2,232.8z"/>
<g>
	<path style="fill:#61C2AB;" d="M462,239.6c-5.6,0-10.4,4.4-10.4,10s4.4,10,10,10c3.2,0,6.4-1.6,8.4-4c1.2-1.2,2.4-3.2,1.6-6
		C470.4,240,463.6,239.6,462,239.6z"/>
	<path style="fill:#61C2AB;" d="M421.6,239.6c-5.2,0-10,4.4-10,10s4.4,10,10,10c2.8,0,5.2-1.2,7.2-3.2s2.8-4.4,2.8-7.2
		C432,240.8,422,239.6,421.6,239.6z"/>
	<path style="fill:#61C2AB;" d="M382,239.6c-5.6,0-10,4.4-10,10s4.4,10,10,10c2.8,0,5.6-1.2,7.6-3.2s2.8-4.4,2.8-6.8
		C391.6,240,383.2,239.6,382,239.6z"/>
</g>
<path style="fill:#F4EFEF;" d="M472,344h-2H36c-16.4,0-30,11.6-30,28v48c0,16.4,13.6,32,30,32h436c16.4,0,30-15.6,30-32v-46v-2
	C502,355.6,488.4,344,472,344z"/>
<path style="fill:#CDEEF9;" d="M102,389.2v8.4c0,7.6,8.4,18.4,16,18.4h216.4c7.6,0,12-10.4,12-18.4v-8.4c0-7.6-4-9.2-12-9.2H118
	C110,380,102,382,102,389.2z"/>
<path style="fill:#E8E3E3;" d="M63.6,376.8c-2-0.8-4-0.8-5.6-0.8c-9.6,0-17.6,8-17.6,17.6s8,17.6,17.6,17.6s17.6-8,17.6-17.6
	c0-1.6-0.4-3.6-0.8-5.2C71.6,378,64,376.8,63.6,376.8z"/>
<g>
	<path style="fill:#61C2AB;" d="M462,383.2c-5.6,0-10,4.4-10,10s4.4,10,10,10c3.2,0,6-1.2,8-3.6c1.6-2,2.4-4,2-6.4
		C471.2,383.6,462.8,383.2,462,383.2z"/>
	<path style="fill:#61C2AB;" d="M422.4,383.2c-6,0-10.4,4.4-10.4,10s4.4,10,10,10c3.2,0,6.4-1.6,8.4-3.6c1.2-1.2,2.4-3.2,2-6
		C430.8,384,424.4,383.2,422.4,383.2z"/>
	<path style="fill:#61C2AB;" d="M382,383.2c-5.6,0-10,4.4-10,10s4.4,10,10,10c3.2,0,6-1.2,8-3.6c1.6-2,2.4-4,2-6.4
		C390.8,383.6,382.4,383.2,382,383.2z"/>
	<path style="fill:#61C2AB;" d="M462,95.6c-5.6,0-10,4.4-10,10s4.4,10,10,10c3.2,0,6-1.2,8-3.6c1.6-2,2.4-4,2-6.4
		C470.8,96.4,462.4,95.6,462,95.6z"/>
	<path style="fill:#61C2AB;" d="M422.4,95.6H422c-5.6,0-10,4.4-10,10s4.4,10,10,10c3.2,0,6.8-1.6,8.8-4c0.8-1.2,2-3.2,1.6-5.6
		C430,96.4,424,95.6,422.4,95.6z"/>
	<path style="fill:#61C2AB;" d="M382.4,95.6c-6,0-10.4,4.4-10.4,10s4.4,10,10,10c3.2,0,6.4-1.6,8.4-4c1.2-1.2,2.4-3.2,1.6-6
		C390.4,96.4,383.6,95.6,382.4,95.6z"/>
</g>
<path d="M472,170H36c-20,0-36-16-36-36V86c0-20,16-36,36-36h436c20,0,36,16,36,36v48C508,154,492,170,472,170z M36,58
	C20.4,58,8,70.4,8,86v48c0,15.6,12.4,28,28,28h436c15.6,0,28-12.4,28-28V86c0-15.6-12.4-28-28-28H36z"/>
<path d="M334,134H118c-10.4,0-18-8.4-18-20v-12.4c0-10.4,6-15.6,18-15.6h176c2.4,0,4,1.6,4,4s-1.6,4-4,4H118c-8.4,0-10,2.4-10,7.6
	V114c0,5.6,2.4,12,10,12h216.4c7.2,0,10-6.4,10-12v-12.4c0-5.2-1.6-7.6-10-7.6h-8c-2.4,0-4-1.6-4-4s1.6-4,4-4h8c12,0,18,5.2,18,15.6
	V114C352,125.6,344.8,134,334,134z"/>
<path d="M57.6,129.6C44.4,129.6,34,118.8,34,106s10.8-23.6,23.6-23.6c2.4,0,4.8,0.4,7.2,1.2c2,0.8,3.2,2.8,2.4,5.2
	c-0.8,2-2.8,3.2-5.2,2.4c-1.6-0.4-3.2-0.8-4.8-0.8c-8.8,0-15.6,7.2-15.6,15.6s7.2,15.6,15.6,15.6c8.8,0,15.6-7.2,15.6-15.6
	c0-1.6-0.4-3.2-0.8-4.8c-0.8-2,0.4-4.4,2.8-4.8c2-0.8,4.4,0.4,4.8,2.8c0.8,2.4,1.2,4.4,1.2,6.8C81.6,118.8,70.8,129.6,57.6,129.6z"
	/>
<path d="M462,122c-8.8,0-16-7.2-16-16s7.2-16,16-16c2.4,0,4,1.6,4,4s-1.6,4-4,4c-4.4,0-8,3.6-8,8s3.6,8,8,8s8-3.6,8-8
	c0-2.4,1.6-4,4-4s4,1.6,4,4C478,114.8,470.8,122,462,122z"/>
<path d="M422,122c-8.8,0-16-7.2-16-16s7.2-16,16-16c2.4,0,4,1.6,4,4s-1.6,4-4,4c-4.4,0-8,3.6-8,8s3.6,8,8,8s8-3.6,8-8
	c0-2.4,1.6-4,4-4s4,1.6,4,4C438,114.8,430.8,122,422,122z"/>
<path d="M382,122c-8.8,0-16-7.2-16-16s7.2-16,16-16c2.4,0,4,1.6,4,4s-1.6,4-4,4c-4.4,0-8,3.6-8,8s3.6,8,8,8s8-3.6,8-8
	c0-2.4,1.6-4,4-4s4,1.6,4,4C398,114.8,390.8,122,382,122z"/>
<path d="M472,314H36c-20,0-36-16-36-36v-48c0-20,16-36,36-36h436c20,0,36,16,36,36v48C508,298,492,314,472,314z M36,202
	c-15.6,0-28,12.4-28,28v48c0,15.6,12.4,28,28,28h436c15.6,0,28-12.4,28-28v-48c0-15.6-12.4-28-28-28H36z"/>
<path d="M334,278H118c-10.4,0-18-8.4-18-20v-12.4c0-10.4,6-15.6,18-15.6h176c2.4,0,4,1.6,4,4s-1.6,4-4,4H118c-8.4,0-10,2.4-10,7.6
	V258c0,5.6,2.4,12,10,12h216.4c7.2,0,10-6.4,10-12v-12.4c0-5.2-1.6-7.6-10-7.6h-8c-2.4,0-4-1.6-4-4s1.6-4,4-4h8c12,0,18,5.2,18,15.6
	V258C352,269.6,344.8,278,334,278z"/>
<path d="M57.6,273.6C44.4,273.6,34,262.8,34,250c0-13.2,10.8-23.6,23.6-23.6c2.4,0,4.8,0.4,7.2,1.2c2,0.8,3.2,2.8,2.4,5.2
	c-0.8,2-2.8,3.2-5.2,2.4c-1.6-0.4-3.2-0.8-4.8-0.8c-8.8,0-15.6,7.2-15.6,15.6s7.2,15.6,15.6,15.6c8.8,0,15.6-7.2,15.6-15.6
	c0-1.6-0.4-3.2-0.8-4.8c-0.8-2,0.4-4.4,2.8-4.8c2-0.8,4.4,0.4,4.8,2.8c0.8,2.4,1.2,4.4,1.2,6.8C81.6,262.8,70.8,273.6,57.6,273.6z"
	/>
<path d="M462,266c-8.8,0-16-7.2-16-16s7.2-16,16-16c2.4,0,4,1.6,4,4s-1.6,4-4,4c-4.4,0-8,3.6-8,8s3.6,8,8,8s8-3.6,8-8
	c0-2.4,1.6-4,4-4s4,1.6,4,4C478,258.8,470.8,266,462,266z"/>
<path d="M422,266c-8.8,0-16-7.2-16-16s7.2-16,16-16c2.4,0,4,1.6,4,4s-1.6,4-4,4c-4.4,0-8,3.6-8,8s3.6,8,8,8s8-3.6,8-8
	c0-2.4,1.6-4,4-4s4,1.6,4,4C438,258.8,430.8,266,422,266z"/>
<path d="M382,266c-8.8,0-16-7.2-16-16s7.2-16,16-16c2.4,0,4,1.6,4,4s-1.6,4-4,4c-4.4,0-8,3.6-8,8s3.6,8,8,8s8-3.6,8-8
	c0-2.4,1.6-4,4-4s4,1.6,4,4C398,258.8,390.8,266,382,266z"/>
<path d="M472,458H36c-20,0-36-16-36-36v-48c0-20,16-36,36-36h436c20,0,36,16,36,36v48C508,442,492,458,472,458z M36,346
	c-15.6,0-28,12.4-28,28v48c0,15.6,12.4,28,28,28h436c15.6,0,28-12.4,28-28v-48c0-15.6-12.4-28-28-28H36z"/>
<path d="M334,422H118c-10.4,0-18-8.4-18-20.4v-12.4c0-15.2,13.6-15.2,18-15.2h176c2.4,0,4,1.6,4,4s-1.6,4-4,4H118
	c-8.4,0-10,2.4-10,7.2v12.4c0,6,3.2,12.4,10,12.4h216.4c6.8,0,10-6,10-12.4v-12.4c0-5.2-1.6-7.2-10-7.2h-8c-2.4,0-4-1.6-4-4
	s1.6-4,4-4h8c4.4,0,18,0,18,15.2v12.4C352,413.6,344.4,422,334,422z"/>
<path d="M57.6,417.2c-13.2,0-23.6-10.8-23.6-23.6S44.8,370,57.6,370c2.4,0,4.8,0.4,7.2,1.2c2,0.8,3.2,2.8,2.4,5.2
	c-0.8,2-2.8,3.2-5.2,2.4c-1.6-0.4-3.2-0.8-4.8-0.8c-8.8,0-15.6,7.2-15.6,15.6c0,8.8,7.2,15.6,15.6,15.6c8.8,0,15.6-7.2,15.6-15.6
	c0-1.6-0.4-3.2-0.8-4.8c-0.8-2,0.4-4.4,2.8-5.2c2-0.8,4.4,0.4,4.8,2.8c0.8,2.4,1.2,4.4,1.2,6.8C81.6,406.8,70.8,417.2,57.6,417.2z"
	/>
<path d="M462,409.6c-8.8,0-16-7.2-16-16s7.2-16,16-16c2.4,0,4,1.6,4,4s-1.6,4-4,4c-4.4,0-8,3.6-8,8s3.6,8,8,8s8-3.6,8-8
	c0-2.4,1.6-4,4-4s4,1.6,4,4C478,402.4,470.8,409.6,462,409.6z"/>
<path d="M422,409.6c-8.8,0-16-7.2-16-16s7.2-16,16-16c2.4,0,4,1.6,4,4s-1.6,4-4,4c-4.4,0-8,3.6-8,8s3.6,8,8,8s8-3.6,8-8
	c0-2.4,1.6-4,4-4s4,1.6,4,4C438,402.4,430.8,409.6,422,409.6z"/>
<path d="M382,409.6c-8.8,0-16-7.2-16-16s7.2-16,16-16c2.4,0,4,1.6,4,4s-1.6,4-4,4c-4.4,0-8,3.6-8,8s3.6,8,8,8s8-3.6,8-8
	c0-2.4,1.6-4,4-4s4,1.6,4,4C398,402.4,390.8,409.6,382,409.6z"/>
</svg>