<?xml version="1.0" standalone="no"?>
<!DOCTYPE svg PUBLIC "-//W3C//DTD SVG 20010904//EN"
 "http://www.w3.org/TR/2001/REC-SVG-20010904/DTD/svg10.dtd">
<svg version="1.0" xmlns="http://www.w3.org/2000/svg"
 width="512.000000pt" height="512.000000pt" viewBox="0 0 512.000000 512.000000"
 preserveAspectRatio="xMidYMid meet">

<g transform="translate(0.000000,512.000000) scale(0.100000,-0.100000)"
fill="#000000" stroke="none">
<path d="M2325 5109 c-679 -65 -1307 -399 -1742 -926 -394 -478 -603 -1094
-579 -1708 16 -444 138 -855 363 -1234 205 -342 539 -675 890 -885 l61 -36
139 49 c422 149 688 286 829 425 68 68 91 106 103 171 18 95 -19 186 -148 368
-134 190 -153 246 -110 334 67 138 302 247 709 328 l115 23 -990 1 c-756 1
-994 4 -1003 13 -7 7 -12 21 -12 32 1 12 160 296 354 631 l353 610 33 0 c33 0
34 -2 224 -331 105 -182 195 -332 200 -335 4 -2 131 210 282 471 155 268 283
479 293 484 51 23 57 14 314 -431 136 -235 251 -433 255 -440 5 -8 47 52 117
167 117 191 138 212 175 174 26 -27 620 -992 620 -1007 0 -36 -17 -37 -439
-37 -426 0 -464 -3 -646 -44 -105 -24 -251 -74 -330 -112 -149 -73 -227 -158
-228 -252 -1 -94 38 -157 213 -337 69 -71 147 -160 173 -197 148 -207 175
-447 83 -721 -26 -76 -105 -242 -147 -304 l-21 -33 30 0 c55 0 255 39 385 74
500 138 960 437 1294 843 394 478 603 1094 579 1708 -31 836 -450 1585 -1148
2052 -467 312 -1078 465 -1643 412z m288 -635 c18 -9 39 -22 47 -29 12 -11 24
-11 55 -3 61 16 110 3 160 -43 48 -45 83 -117 92 -190 l6 -49 -347 0 c-306 0
-346 2 -346 15 0 27 27 71 64 103 20 18 39 46 45 69 31 114 134 173 224 127z
m-1214 -429 c16 -8 40 -27 53 -43 13 -16 41 -35 61 -41 20 -7 50 -28 66 -46
30 -34 61 -117 61 -162 l0 -23 -340 0 c-335 0 -340 0 -340 20 0 34 29 93 63
129 35 37 119 81 154 81 13 0 32 13 45 30 48 65 117 86 177 55z m2496 -229
c25 -15 53 -38 62 -52 9 -14 32 -33 52 -44 63 -32 111 -103 111 -165 l0 -25
-345 0 -345 0 0 23 c0 39 43 111 86 142 23 16 49 42 58 57 57 94 216 125 321
64z m-245 -2253 c90 -108 100 -129 78 -151 -9 -9 -4 -20 22 -47 30 -31 32 -37
22 -60 -6 -14 -17 -25 -24 -25 -7 0 2 -13 20 -29 36 -33 40 -52 16 -75 -11
-12 -36 -16 -99 -16 l-84 0 -3 -42 -3 -43 -55 0 -55 0 -3 43 -3 42 -80 0 c-44
0 -89 5 -100 10 -29 16 -24 55 12 80 30 22 30 22 10 37 -29 20 -26 42 10 79
27 28 29 34 17 53 -16 26 -10 38 95 160 48 57 85 91 97 91 12 0 52 -39 110
-107z m-2340 -240 c90 -108 100 -129 78 -151 -9 -9 -4 -20 22 -47 30 -31 32
-37 22 -60 -6 -14 -17 -25 -24 -25 -7 0 2 -13 20 -29 36 -33 40 -52 16 -75
-11 -12 -36 -16 -99 -16 l-84 0 -3 -42 -3 -43 -55 0 -55 0 -3 43 -3 42 -80 0
c-44 0 -89 5 -100 10 -29 16 -24 55 12 80 30 22 30 22 10 37 -29 20 -26 42 10
79 27 28 29 34 17 53 -16 26 -10 38 95 160 48 57 85 91 97 91 12 0 52 -39 110
-107z"/>
</g>
</svg>
